<svg version="1.2" xmlns="http://www.w3.org/2000/svg" viewBox="0 0 36 36" width="32" height="32">
	<style>
		.s0 { fill: #5dadec } 
	</style>
	<path class="s0" d="m14.18 0.17l-6.36 1.3c-0.45 0.09-0.82 0.54-0.82 1v15.86q-0.93-0.32-2-0.33c-2.76 0-5 1.74-5 3.89 0 2.15 2.24 3.89 5 3.89 2.71 0 4.91-1.69 4.99-3.78h0.01v-15.52l4.18-0.86c0.45-0.09 0.82-0.54 0.82-1v-3.79c0-0.45-0.37-0.76-0.82-0.66zm21 4l-6.36 1.3c-0.45 0.09-0.82 0.54-0.82 1v15.86q-0.93-0.32-2-0.33c-2.76 0-5 1.74-5 3.89 0 2.15 2.24 3.89 5 3.89 2.71 0 4.91-1.69 4.99-3.78h0.01v-15.52l4.18-0.86c0.45-0.09 0.82-0.54 0.82-1v-3.79c0-0.45-0.37-0.76-0.82-0.66z"/>
	<path class="s0" d="m23.18 10.17l-6.36 1.3c-0.45 0.09-0.82 0.54-0.82 1v15.86q-0.93-0.32-2-0.33c-2.76 0-5 1.74-5 3.89 0 2.15 2.24 3.89 5 3.89 2.71 0 4.91-1.69 4.99-3.78h0.01v-15.52l4.18-0.86c0.45-0.09 0.82-0.54 0.82-1v-3.79c0-0.45-0.37-0.76-0.82-0.66z"/>
</svg>